<svg width="131" height="50" viewBox="0 0 131 50" fill="none" xmlns="http://www.w3.org/2000/svg">
<g id="&#235;&#145;&#144;&#235;&#166;&#172;&#236;&#149;&#136; &#237;&#148;&#140;&#235;&#160;&#136;&#236;&#157;&#180;&#237;&#138;&#184;">
<path id="Vector" d="M98.7861 43.2824H110.904H115.909H130.925V49.0779H98.7861V43.2824ZM99.8399 42.176V38.0402C99.8399 37.3289 99.8399 36.4069 99.8399 34.0887L107.269 33.035C107.427 33.0087 107.479 33.0087 107.506 32.9296H99.8399V27.9508H129.739V32.9296H117.542C115.698 32.9296 112.405 32.9296 110.535 32.9296V34.5366C110.535 35.1951 110.535 35.9327 110.535 36.6703C110.746 36.2489 110.983 35.801 111.194 35.3532C111.483 34.7736 111.721 34.2468 111.852 34.0097H129.397V37.2499H110.535V38.3826C110.535 38.409 110.535 38.409 110.561 38.409H130.661L129.739 42.176H99.8399Z" fill="#3DAB60"/>
<path id="Vector_2" d="M87.4586 49.9999V43.4931C87.4586 40.0159 87.4586 36.5122 87.4586 33.0086V27.3449H97.2055V36.0117C97.2055 40.6744 97.2055 45.3372 97.2055 49.9999H87.4586ZM65.989 38.2245C65.989 37.4606 66.0417 36.6966 66.1471 36.0117C66.6212 33.035 68.0174 30.6114 70.1249 29.0045C71.8372 27.7137 73.9973 26.9761 76.4735 26.9761H76.4999C78.1068 26.9761 79.582 27.2658 80.8992 27.8454L77.1584 34.7999C77.1058 34.7736 76.9214 34.7473 76.8687 34.7473H76.7896C75.7096 34.7473 75.0774 35.959 75.0774 38.488C75.0774 39.6207 75.2091 40.49 75.4462 41.1223C75.7359 41.8599 76.1838 42.2287 76.7633 42.2287C77.3692 42.2287 77.817 41.8335 78.1068 41.0169C78.3439 40.411 78.4493 39.568 78.4493 38.488C78.4493 36.3015 77.9751 35.0897 77.1584 34.7999L83.4544 29.4523C85.6936 31.4544 87.0107 34.5365 87.0107 38.2245C87.0107 41.7018 85.8516 44.6522 83.7969 46.6543C81.9792 48.4193 79.4766 49.473 76.4999 49.473C73.3387 49.473 70.7308 48.3139 68.8867 46.3382C67.0427 44.3625 65.989 41.5174 65.989 38.2245Z" fill="#3DAB60"/>
<path id="Vector_3" d="M33.3237 49.078V43.2561C33.3237 41.5702 33.3237 39.8579 33.3237 38.1456V36.1435H40.8315C40.9105 35.8538 40.9632 35.5376 41.0422 35.2479C41.0949 34.9581 41.1739 34.6683 41.2266 34.3786C41.2266 34.3522 41.2266 34.3522 41.2003 34.3522H33.3237V27.6084H48.3129L48.0758 30.19C47.9704 31.3755 47.8651 32.5609 47.8124 33.72C47.707 34.5103 47.6543 35.3006 47.5753 36.1435H49.8935C49.9198 36.1435 49.9198 36.1435 49.9198 36.1172V27.345H55.9787V38.1193C55.9787 42.0707 55.9787 46.0222 55.9787 50H49.9198V45.0475C49.9198 43.6513 49.9198 42.2288 49.9198 40.8589C49.9198 40.8326 49.9198 40.8326 49.8935 40.8326H40.3573C40.331 40.8326 40.331 40.8326 40.331 40.8589V41.7546C40.331 42.0707 40.331 42.3868 40.331 42.7293C40.331 42.7556 40.331 42.7556 40.3573 42.7556H49.1295L48.2075 49.078H33.3237ZM57.0324 50V40.7009C57.0324 36.2489 57.0324 31.7969 57.0324 27.345H64.5402V33.9571C64.5402 39.3047 64.5402 44.6523 64.5402 50H57.0324Z" fill="#3DAB60"/>
<path id="Vector_4" d="M0.869316 50V46.2593C0.869316 45.3636 0.869316 44.4943 0.869316 43.5986H21.733V43.3089C21.733 43.1508 21.733 42.9927 21.733 42.8347C21.733 42.8083 21.733 42.8083 21.7066 42.8083H1.00103V40.2531H31.2691V41.2541V43.5986C31.2691 44.0201 31.2691 44.4416 31.2691 44.8631H10.4318C10.4055 44.8631 10.4055 44.8631 10.4055 44.8894V45.2582C10.4055 45.39 10.4055 45.4953 10.4055 45.627C10.4055 45.6534 10.4055 45.6534 10.4318 45.6534H22.6286H31.9541L31.1901 50H0.869316ZM0 39.6208V36.7231H12.1178H17.1229H32.1385V39.6208H0ZM0.658571 30.875V27.5031H31.4799V30.875H21.4959C19.1777 30.875 16.8859 30.875 14.1462 30.875H8.82491C6.11158 30.875 3.39824 30.875 0.658571 30.875ZM0.922002 36.1962V34.2995H5.24225C3.47727 33.7463 2.95041 32.7453 2.71333 31.5335L14.1462 31.0594C14.1462 32.3765 14.5677 33.6146 15.5424 34.2995H17.2283C17.281 34.2995 17.281 34.2995 17.281 34.2732L17.6762 32.719C17.7815 32.2711 17.8869 31.8233 17.9923 31.3755H29.2144C29.0563 31.8233 28.8983 32.2975 28.7666 32.7453C28.5822 33.2722 28.4241 33.7727 28.266 34.2732C28.266 34.2995 28.266 34.2995 28.2924 34.2995H31.2165V36.1962H0.922002Z" fill="#3DAB60"/>
<path id="Vector_5" d="M92.3446 14.594C89.1834 14.594 86.6018 13.9091 84.7315 12.671C82.8875 11.4329 81.8337 9.56251 81.8337 7.29701C81.8337 6.7965 81.9128 6.21695 82.0445 5.74278C82.5187 3.84608 83.7568 2.29184 85.9169 1.26446C87.6292 0.421489 89.842 0 92.3183 0H92.3446C93.9515 0 95.4531 0.210744 96.6649 0.553204L93.2139 5.34763L93.3983 5.37397C95.1896 4.24122 97.4815 2.73967 99.2992 1.60692C101.538 2.89773 102.855 4.84711 102.855 7.29701C102.855 9.64154 101.696 11.5119 99.6416 12.829C97.8239 13.9881 95.3214 14.594 92.3446 14.594ZM84.2046 22.7604V20.4422C84.2046 19.3358 84.2046 18.2557 84.2046 17.1493V15.3843H94.8472V16.359C94.8472 16.6751 94.8472 17.0176 94.8472 17.3074C94.8472 17.3337 94.8472 17.3337 94.8735 17.3337H113.314L112.576 22.7604H84.2046ZM90.685 7.7185C90.685 8.40342 90.8167 8.90394 91.0801 9.2464C91.4226 9.66788 91.9495 9.87863 92.608 9.87863C93.2929 9.87863 93.8198 9.66788 94.1623 9.19371C94.4257 8.82491 94.5311 8.37708 94.5311 7.7185C94.5311 6.48038 94.0042 5.76912 93.0559 5.58472L92.7661 5.55837C92.7397 5.55837 92.6871 5.55837 92.6344 5.55837C91.3963 5.55837 90.685 6.26964 90.685 7.7185ZM103.303 16.1746V11.5909C103.303 10.5372 103.303 9.50983 103.303 8.45611V0.237087H112.392V4.63637H114.236V13.0661H112.392V16.1746H103.303Z" fill="#3DAB60"/>
<path id="Vector_6" d="M70.6376 22.892V16.3853C70.6376 12.908 70.6376 9.40443 70.6376 5.90081V0.237061H80.3846V8.90391C80.3846 13.5666 80.3846 18.2293 80.3846 22.892H70.6376ZM49.8267 21.97V16.1482C49.8267 14.4623 49.8267 12.75 49.8267 11.0377V9.03563H59.837C59.9424 8.71951 60.0214 8.37705 60.1268 8.08728L60.3639 7.27064C60.3639 7.2443 60.3639 7.2443 60.3375 7.2443H49.8267V0.500492H69.0571L68.7673 3.08211C68.6356 4.26754 68.5039 5.45298 68.3985 6.61207C68.2931 7.40236 68.2141 8.19265 68.1351 9.03563H69.0571V13.7247H58.2828C58.2564 13.7247 58.2564 13.7247 58.2564 13.751V14.6467C58.2564 14.9628 58.2564 15.2789 58.2564 15.6214C58.2564 15.6477 58.2564 15.6477 58.2828 15.6477H70.1108L68.7936 21.97H49.8267Z" fill="#3DAB60"/>
<path id="Vector_7" d="M25.8546 22.7603V21.7593C25.8546 21.4432 25.8546 21.127 25.8546 20.7846C25.8546 20.7582 25.8546 20.7582 25.8282 20.7582H16.1077V14.9628H48.2461V20.7582H38.5256C38.4992 20.7582 38.4992 20.7582 38.4992 20.7846V21.7329C38.4992 22.1017 38.4992 22.4442 38.4992 22.7603H25.8546ZM17.0824 13.7773V10.6952C17.0824 9.79954 17.0824 8.93023 17.0824 8.06091L27.804 6.90181C24.2213 6.90181 20.665 6.90181 17.0824 6.90181V0.605835H47.2451V6.90181H40.2115H28.1464C28.1464 7.5077 28.1464 8.19262 28.1464 8.79851C28.1464 8.82485 28.1464 8.82485 28.1728 8.82485H47.9037L47.2451 13.7773H17.0824Z" fill="#3DAB60"/>
</g>
</svg>
